<svg id="Capa_2" data-name="Capa 2" xmlns="http://www.w3.org/2000/svg" viewBox="0 0 398.29 297.91"><defs><style>.cls-1{fill:#b4ffd8;opacity:0.61;}.cls-2{fill:#00a7aa;}</style></defs><path class="cls-1" d="M220,112.16h1.09v1.09L220,118.68a20.41,20.41,0,0,0,6.52,1.09v-1.09h2.18q0,4.35,2.17,4.35l-1.08,2.18q1.89,0,3.26,5.43a8.29,8.29,0,0,1-3.26,1.09v2.18l1.08,7.61h-2.17c0-2.18-.73-3.27-2.18-3.27v1.09l2.18,5.44c-1.63,0-3.45,1.81-5.44,5.43l1.09,5.44h-3.26l1.09,2.18a1,1,0,0,0-1.09,1.08,1,1,0,0,1,1.09,1.09H217.8v1.09l2.17,3.26a8.57,8.57,0,0,1-4.35,1.09v2.17l2.18-1.09,4.35,1.09a8.36,8.36,0,0,1,3.26-1.09v1.09q-6.53,20.94-6.53,21.75v1.08H220c0-2.17.72-3.26,2.18-3.26v1.09c0,3.63-1.46,5.44-4.35,5.44v1.08H220V197q-3.25,0-3.26,7.61l2.17,1.09-3.26,10.87h2.18v-4.35h1.08l3.27,2.17a73.08,73.08,0,0,1-4.35,18.49,1,1,0,0,0,1.08,1.08q-3.81,21.75-5.43,21.75l1.08,2.17V260c0,3.63-.72,5.43-2.17,5.43l1.09,2.18a54.52,54.52,0,0,0-1.09,8.7v2.17h1.09v-2.17a5.9,5.9,0,0,1,4.35,4.35,56.48,56.48,0,0,0-1.09,9.78v3.26h-2.18v-6.52h-1.08v4.35h-1.09v-2.18h-2.17v1.09q0,.55-1.09,14.14a1.92,1.92,0,0,0,2.17-2.18l-1.08-4.35a8.64,8.64,0,0,0,1.08-4.35h2.18v1.09L212.36,297h2.17v3.26h-1.08v-2.18h-1.09A42,42,0,0,1,211.27,309h-1.08v-3.27H208l1.09,2.18c-.55,5.07-1.27,7.61-2.18,7.61l1.09,2.17q0,7.08-1.09,21.75,1.1,17.12,1.09,25l-2.17,1.08a1,1,0,0,1-1.09-1.08,8.66,8.66,0,0,1-4.35,1.08v1.09a1,1,0,0,0,1.09,1.09l-1.09,2.17v9.79h-2.17a11.15,11.15,0,0,0-1.09-5.44h1.09q-1.36-6.53-3.27-6.52v5.43a1,1,0,0,0,1.09,1.09,8.57,8.57,0,0,0-1.09,4.35h-2.17c0-2.17-.37-3.26-1.09-3.26l1.09-2.18V372c-1.45,0-2.18-1.09-2.18-3.27h-1.08c-.73,3.81-1.09,6-1.09,6.53h-3.26A1.93,1.93,0,0,0,183,373.1a8.29,8.29,0,0,1,1.09-3.26q0-2.71-2.17-13h-4.35l1.08,5.44c0,1.45-.36,2.18-1.08,2.18l1.08,5.43v6.53c-1.45,0-2.54-2.91-3.26-8.7l-2.17,1.08L171,367.67a1.92,1.92,0,0,1-2.17,2.17q0-6-5.44-15.22l-2.17,1.09h-1.09l2.18-3.26v-1.09l-5.44,1.09v2.17h2.17v2.17h-2.17v1.09l1.09,2.18q-14.15,1.35-14.14,4.35a12.64,12.64,0,0,1-6.52-2.18v1.09Q110.7,359,108,355.71q-11.15-4.89-20.66-18.49-9.78-6.78-9.78-35.88v-2.17q0-8.43,9.78-30.44l2.18,1.08c0-2.17.72-3.26,2.17-3.26v2.18q-6.53,12-6.52,29.35v5.44h1.09q4.08-29.36,8.7-29.36c-1.46,0-2.18-.36-2.18-1.08q0-.56,3.26-10.88l-4.35,4.35v-2.17q10.88-19.57,28.27-30.45l2.18,1.09c0-1.81,1.81-2.89,5.43-3.26a1,1,0,0,0,1.09,1.09q0-1.08,9.79-6.53a1.92,1.92,0,0,1-2.18-2.17l3.26-2.18h1.09v3.27c1.45,0,2.17-1.09,2.17-3.27h1.09v3.27l7.61-1.09Q167,228.5,170,230.67q2.16,0,6.52-28.27h2.17v-2.17l-1.08-2.18c1.08,0,2.17-1.8,3.26-5.43a1,1,0,0,0-1.09-1.09q3.27-14.13,14.14-45.66,4.34-14.13,6.52-14.14l-1.09-2.17q6.25-15.23,8.7-15.23v1.09a8.29,8.29,0,0,0-1.09,3.26c1.09,0,2.54-1.44,4.35-4.35l2.18,1.09ZM85.15,306.78V309h1.09v-2.18Zm5.44-48.93h2.17v1.09a1.93,1.93,0,0,1-2.17,2.18ZM98.2,260a1,1,0,0,1,1.08,1.09H97.11v2.17H98.2l5.43-1.09v-1.08c-2.17,0-3.26-.73-3.26-2.18v-2.17l3.26-4.35v-1.09Q100.92,251.33,98.2,260Zm0,4.35v2.17h1.08v-2.17Zm5.43-14.14h2.18v-2.17C104.36,248.25,103.63,249,103.63,250.24Zm2.18,3.26a8.45,8.45,0,0,1-1.09,3.27h2.18V253.5Zm1.09,35.88v2.18H108v-2.18ZM108,305.69A8.39,8.39,0,0,1,106.9,309h2.17v-3.27Zm0-18.48c.18,1.45.91,2.17,2.18,2.17v-2.17Zm0,13.05v2.17h1.09v-2.17Zm0,12v2.17h1.09v-2.17Zm1.09-63.06v2.17h1.09v-2.17Zm0,29.35v2.18h1.09v-2.18Zm2.17-30.44v1.09q1.64,0,3.27-3.27h-1.09C112,246.08,111.24,246.8,111.24,248.07Zm0,23.92v1.09h1.09q0-2.71,13-21.75h-1.09Q117,259.22,111.24,272Zm0,7.61V284h1.09V279.6Zm7.61-41.32H121v-2.17C119.58,236.29,118.85,237,118.85,238.28Zm23.92,2.18H146c0,.91-1.82,2.72-5.44,5.43l-2.17-1.08-1.09,7.61-2.18-1.09v3.26L133,253.5H131.9q0,1.91-5.43,7.62a8.6,8.6,0,0,0,1.08,4.34,8.44,8.44,0,0,0-1.08,3.27h2.17q0-4.91,5.44-7.61v2.17c-1.46,5.08-2.9,7.61-4.35,7.61v2.18H133v1.08q-3.81,6.79-9.79,23.92h3.27v1.09c-2.18,0-3.27.73-3.27,2.17v1.09a1,1,0,0,0,1.09,1.09l-1.09,2.17v1.09h2.18V310H123.2v-2.17h-1.08v7.61h2.17v3.26a1,1,0,0,1-1.09,1.09,8.57,8.57,0,0,1,1.09,4.35,1.93,1.93,0,0,0,2.18-2.18,1,1,0,0,1-1.09-1.08h2.17v6.52h2.18l6.52-3.26a8.4,8.4,0,0,0,3.26,1.08q0-1.35,7.61-5.43h1.09L147.12,322h3.27q0-3,6.52-7.61l2.17,1.09h2.18l1.09-4.35h-1.09q2.72-17.38,4.35-22.83l-1.09-6.53q3.25-26.62,3.26-34.79-1.64,0-6.52-6.52-9,.81-12,5.43H146v-1.08q3.53,0,6.52-5.44h-1.09L146,240.46v-2.18H145C143.5,238.47,142.77,239.19,142.77,240.46Zm-20.65,25v2.18h1.08v-2.18Zm0,8.7v2.18h1.08v-2.18Zm3.26,19.57h2.17v2.18h-2.17Zm1.09-56.53v2.17h1.08V237.2Zm0,12v2.17h1.08v-2.17Zm1.08,52.18h2.18v1.09a8.29,8.29,0,0,0-1.09,3.26h-2.17v-1.08A8.39,8.39,0,0,0,127.55,301.34Zm-1.08,6.53h2.17v3.26h-2.17Zm4.34-51.1H133v1.08h-2.18Zm6.53-1.09h1.09v1.09a1.92,1.92,0,0,1-2.18,2.17h-1.09v-1.09C135.34,256.41,136.07,255.68,137.34,255.68Zm-1.09-10.87V247h1.09v-2.17ZM145,247H146q-2.73,5.45-4.35,5.44h-2.18Q139.51,251.06,145,247Zm15.22,70.67q0,1.1-3.26,7.61H158c2.89-2.53,4.35-4.71,4.35-6.52ZM158,357.88h2.17V359H158Zm13,3.26v3.27h1.09v-3.27Zm2.18,0a11.18,11.18,0,0,1,1.09,5.44h2.17a11,11,0,0,1-1.09-5.44Zm4.35-18.48v1.09a8.4,8.4,0,0,1,1.08,3.26h1.09v-1.09a8.41,8.41,0,0,1-1.09-3.26Zm0,9.79v2.17h2.17v-2.17Zm1.08-57.63V297h1.09v-2.18Zm1.09-16.31v2.18h2.18A1.93,1.93,0,0,0,179.74,278.51Zm2.18-16.31a32.1,32.1,0,0,1-1.09,7.61h3.26A31.6,31.6,0,0,1,183,262.2Zm-1.09,12v3.26h1.09v-3.26Zm0,16.31v2.18h1.09v-2.18Zm1.09-31.53v2.18H183v-2.18Zm6.52,75c0,1.45-.37,2.18-1.09,2.18a32.17,32.17,0,0,1,1.09,7.61h1.09q0-5.44,1.08-5.44a8.66,8.66,0,0,1-1.08-4.35Zm-1.09,18.49v4.34a8.52,8.52,0,0,0,1.09,4.35,8.33,8.33,0,0,0-1.09,3.27l2.18,1.08,1.08-5.43v-2.18a1,1,0,0,0-1.08-1.09l1.08-2.17v-2.17Zm1.09-132.65v3.26h1.09V219.8Zm0,81.54v1.09h2.17v-1.09Zm0,27.19v3.26h1.09v-3.26Zm0,16.3v1.09l1.09,5.44h1.08V347A1.92,1.92,0,0,0,188.44,344.83Zm1.09-52.18v2.17h1.08v-2.17Zm1.08-81.55v4.35h1.09V211.1Zm1.09-5.43V210h1.09v-4.34ZM195,191.53v4.35h1.09v-4.35Zm1.09-3.26v2.17h1.09v-2.17Zm1.09-5.44v3.26h1.09v-3.26Zm0,50v1.08h2.17v-1.08Zm2.17,2.17a8.35,8.35,0,0,1-1.08,3.26h2.17V235Zm0-58.71v2.17h1.09v-2.17Zm2.18-7.61-1.09,5.43c1.45,0,2.17-1.08,2.17-3.26V168.7Zm-1.09,55.45v2.17h1.09v-2.17ZM201.49,210v2.18h1.08V210Zm0,7.62v1.08h2.17v-1.08Zm1.08-53.28v3.26h1.09v-3.26Zm0,183.75v2.17h1.09V348.1Zm0,10.87v2.17h1.09V359Zm1.09-130.47v1.08h2.18V228.5Zm1.09-23.92v4.35h1.09a8.4,8.4,0,0,1,1.08-3.26Zm0,83.72v5.43h1.09V288.3Zm1.09-119.6v2.17h1.08V168.7Zm0,47.84h1.08a1.93,1.93,0,0,0,2.18-2.18v-1.08C208,213.28,206.92,214.36,205.84,216.54ZM206.92,197v2.17H208V197Zm0,78.28v2.17H208v-2.17ZM208,205.67a8.47,8.47,0,0,1,1.09,3.26H208a8.47,8.47,0,0,1,1.09,3.26h1.09q0-5.16,2.17-7.61a1,1,0,0,1-1.09-1.09C209.1,204.22,208,204.94,208,205.67Zm1.09,45.66a32.24,32.24,0,0,1-1.09,7.61c1.27,0,2.35-2.53,3.26-7.61Zm1.09,63.06h1.08v3.26q0,2.73-1.08,16.31H209.1v-13a1,1,0,0,1,1.09-1.09l-1.09-2.18A8.36,8.36,0,0,0,210.19,314.39Zm0-139.17v1.09h2.17v-1.09Zm4.34,8.7-2.17-1.09h-1.09a8.31,8.31,0,0,1-1.08,3.26h1.08l2.18-1.08v2.17q0,1.37-3.26,10.87a8.44,8.44,0,0,1,1.08,3.27,1,1,0,0,0-1.08,1.08h3.26q0-9,5.43-25H217.8C216.34,177.4,215.26,179.57,214.53,183.92ZM210.19,235c.17,1.45.9,2.18,2.17,2.18l1.09-2.18Zm0,9.79v4.35h1.08v-4.35Zm1.08,34.79-1.08,7.61v1.09l5.43-5.44v-1.09c-2.17,0-3.26-.72-3.26-2.17Zm0-162v1.08h2.18V117.6Zm1.09,48.92v1.09a8.47,8.47,0,0,1,1.09,3.26h1.08v-4.35Zm0,65.24v2.17h1.09v-2.17Zm0,84.81h2.17v1.08h-2.17Zm1.09-12h2.17V309h-2.17ZM214.53,172v2.17h1.09V172Zm1.09,45.67v3.26h1.09v-3.26Zm2.18-44.58v3.26h1.08v-3.26Zm1.08-3.26V172H220v-2.17Zm0,38.05h2.18V210h-2.18ZM220,148h2.18v-2.17C220.69,146.05,220,146.77,220,148Zm1.09,55.45h2.17a1.92,1.92,0,0,1-2.17,2.18Zm4.35-27.18,1.08,2.17-2.17,1.09h-1.09v-1.09C223.41,177,224.14,176.31,225.41,176.31Zm-1.09,14.13h2.17v1.09h-2.17ZM225.41,135v2.18h1.08V135Zm0,39.14h1.08v2.18h-1.08ZM233,133.91v2.17a1.92,1.92,0,0,1-2.18,2.17v-2.17C231,134.63,231.75,133.91,233,133.91Z" transform="translate(-27.85 -81.72)"/><path class="cls-1" d="M311.57,81.72h4.35c0,2.17.72,3.26,2.18,3.26a1,1,0,0,0,1.08-1.09L321.36,85l2.17-1.09q2.18,7.62,7.61,7.61l-1.08,4.35v1.09h1.08l1.09-4.35Q339.84,94,339.84,98h1.09L342,93.68h2.17q0,4.62-5.44,10.87l1.09,2.17q-4.35,7.08-4.35,12v1.09h1.09l2.17-7.61h2.18q0,1.36-10.87,32.62v1.09h1.08q0-4.35,4.35-6.53h1.09v1.09q0,6-4.35,8.7l1.09,2.17q0,5.44-10.87,10.87l-1.09,5.44,2.17,1.09a1,1,0,0,1,1.09-1.09v1.09c-.54,2.9-1.27,4.35-2.17,4.35a12.71,12.71,0,0,1,2.17,6.52q-2.72,12-4.35,12l1.09,2.18q-3.54,7.6-4.35,7.61a38.53,38.53,0,0,1,1.09,9.78q14.67-10,25-12h3.26a1,1,0,0,1,1.09,1.09,17.55,17.55,0,0,1,7.61-2.18q32.63,8.72,32.62,23.92l2.18-1.08c1.44,2.35,2.17,4.17,2.17,5.43l-3.26-2.17v2.17q1.89,1.91,3.26,13.05l2.17-1.09v1.09L392,242.63v7.61h2.17v-7.61h1.09c0,1.09.72,4.35,2.18,9.79q-1.91,18.48-4.35,18.48H392l2.17-13v-2.17h-1.08q0,8.7-2.18,8.7l1.09,2.17-8.7,23.92v2.18q1.37,0,5.44-5.44h1.09q-3,15.77-18.49,34.79v2.18l3.26-2.18h1.09v1.09q-3.25,2.71-3.26,4.35h-1.09l-2.17-1.09v4.35h-1.09v-2.17H367l-5.43,9.78a63.8,63.8,0,0,1-10.88,7.61h-3.26v-2.17h-1.09v2.17c1.45.18,2.18.91,2.18,2.18q-7.07,7.06-30.44,17.39a1,1,0,0,1-1.09,1.09l-2.18-1.09q-16,5.44-27.18,5.44l1.09,2.17-2.17,1.09-10.88-3.26h-1.08c0,2.17-.73,3.26-2.18,3.26h-1.09q0-5.44-9.78-5.44v1.09q-14.15-4.35-14.14-10.87-4.35,0-4.35-3.26v-1.09h2.18l-1.09-2.17v-2.18a1,1,0,0,1,1.09-1.09A21.92,21.92,0,0,1,242,338.31v-3.26h2.17V330.7L242,331.79v-3.26a1,1,0,0,1,1.08-1.09L242,325.26l1.08-2.17A1,1,0,0,1,242,322q1.62,0,3.26-4.35a1.92,1.92,0,0,1-2.18-2.17V309l1.09-6.53a1,1,0,0,0-1.09-1.09q0-7.6,12-62,0-4.62,4.35-10.87v-1.09l-1.08-2.17q2.16,0,8.69-26.1,0-2.71,9.79-32.62,5.7-22.56,9.79-23.92l-1.09-5.43,2.17-1.09-1.08-2.17q4.33-3.27,14.13-31.53Q308,86.89,311.57,81.72Zm-62,226.15q-3.27,25.54-3.26,29.35l-2.18-1.08v2.17h2.18v6.52h2.17V332.88a8.54,8.54,0,0,1,1.09-4.35l-1.09-2.18c1.45-7.24,2.18-12,2.18-14.13v-4.35Zm0-6.53a8.5,8.5,0,0,1,1.09,3.27,1,1,0,0,0-1.09,1.08l2.17,1.09c.72-5.25,1.09-8.15,1.09-8.7C251.77,298.08,250.69,299.17,249.6,301.34Zm1.09,34.8V347h1.08V336.14Zm1.08-42.41V297h1.09v-3.27Zm0,37V334h1.09V330.7Zm1.09-41.32v2.18H254l1.08-5.44C253.58,286.12,252.86,287.21,252.86,289.38Zm0,32.62v2.18H254V322ZM254,280.69V285H255v-4.35ZM254,310v2.18a1.92,1.92,0,0,0,2.17-2.18Zm2.17-40.23L255,275.25v4.35h1.09c.72-5.26,1.09-8.16,1.09-8.7v-1.09Zm0,31.53v2.18h1.09v-2.18Zm5.44-57.62q0,2.17-4.35,18.48h2.17c.73-8,1.81-12,3.27-12l-1.09-2.17,1.09-2.18v-2.17Zm-2.18,58.71a8.66,8.66,0,0,1-1.08,4.35l2.17,1.09v-5.44Zm2.18,28.27c0,1.45-.37,2.18-1.09,2.18.72,1.08,1.09,3.26,1.09,6.52h1.09a13.38,13.38,0,0,1,2.17-7.61l-2.17-1.09Zm0-92.42v1.09h2.17v-1.09ZM265.91,309a9.46,9.46,0,0,1-2.18,6.52l1.09,5.44h1.09v-1.09a8.29,8.29,0,0,1-1.09-3.26c1.45,0,2.17-1.09,2.17-3.27V309Zm0-84.81v3.26H267v-3.26Zm0,104.38v2.17H267v-2.17Zm3.26-120.69q0,1.91-2.18,5.44l2.18,1.08,2.17-5.43Zm2.17,16.31v2.17h1.09v-2.17Zm9.79,117.42v2.18h1.09v-2.18Zm7.61-16.31a8.45,8.45,0,0,1-1.09,3.27,8.47,8.47,0,0,1,1.09,3.26l-2.17-1.09L284.39,334l1.09,6.53-1.09,2.17h3.26q1.37-12.78,4.35-17.4ZM285.48,309v2.17h1.09V309Zm2.17-77.2v2.17h1.09v-2.17Zm0,84.81,1.09,2.17v1.09a1,1,0,0,1-1.09,1.09,8.41,8.41,0,0,1,1.09,3.26h1.09v-7.61Zm1.09-4.35,2.17,1.08H292l-1.09-2.17V310q0-6.53,4.35-6.52a8.4,8.4,0,0,1-1.08-3.26Q289.83,300.26,288.74,312.22Zm38.05-78.29v-1.08l2.18-5.44h-1.09a8.29,8.29,0,0,1-3.26,1.09,1,1,0,0,0-1.09-1.09q0,1.91-8.7,8.7v2.17h-2.17v-2.17h-1.09q-6.52,24.46-6.52,26.09c0,1.09-.73,2.18-2.18,3.26q0,16.32-2.17,16.31h-1.09V285a65.72,65.72,0,0,0-1.08,9.78h1.08v1.09l-5.43,2.17v1.09h1.08a8.45,8.45,0,0,1,3.27-1.09v1.09q-.82,12-3.27,12l1.09,2.17Q294.17,316,292,328.53a1,1,0,0,0,1.09,1.08l-2.18,10.88q5.16,0,32.62-20.66,38.33-38.59,42.41-82.63,0-18.48-16.31-18.49Q341.74,221.16,326.79,233.93ZM292,281.77V284h1.09v-2.18Zm1.09,3.27L292,287.21v5.44l2.18-1.09-1.09-2.18c.18-1.44.9-2.17,2.17-2.17a1,1,0,0,0,1.09,1.09l1.09-2.18V285h-1.09l-2.17,1.08A1,1,0,0,0,293.09,285ZM292,293.73v2.18a1.93,1.93,0,0,0,2.18-2.18Zm0,3.27v2.17h1.09V297Zm2.18-92.42h2.17l1.09-5.44C296.17,199.14,295.08,201,294.18,204.58Zm0,73.93v1.09h3.26v-1.09Zm4.35-23.92a24.71,24.71,0,0,1-3.27,12h2.18l1.09-7.61h1.08l2.18,1.09,1.08-2.18c-2.17,0-3.26-1.08-3.26-3.26ZM295.26,272v3.26l4.35,1.09A5.87,5.87,0,0,0,295.26,272Zm0,10.87V284a1.93,1.93,0,0,0,2.18-2.18v-1.08C296,280.87,295.26,281.59,295.26,282.86Zm0,8.7v2.17h1.09v-2.17Zm0,80.46h1.09v2.17h-1.09Zm1.09-103.29v2.17h1.09v-2.17Zm1.09-80.46v2.17h1.09v-2.17Zm3.26,57.62c0,1.09-.73,2.54-2.17,4.35l2.17,1.09q0-2.18,4.35-2.17v-3.27H304L301.79,247A1,1,0,0,0,300.7,245.89Zm-2.17,22.84v2.17h1.08v-2.17Zm1.08-5.44v2.17h1.09v-2.17Zm1.09-82.63v3.26h1.09v-3.26Zm1.09,59.8v2.17h1.08v-2.17Zm3.26-15.22v1.08h1.09l2.17-1.08a1,1,0,0,0,1.09,1.08,8.57,8.57,0,0,1,1.09-4.35H309.4Q305.05,223.61,305.05,225.24Zm4.35-10.88a1,1,0,0,0-1.09-1.08v2.17a1.93,1.93,0,0,1,2.18,2.18h1.08l1.09-5.44Zm5.43-27.18a17.45,17.45,0,0,1-2.17,7.61h1.09l2.17-1.08v2.17a1.92,1.92,0,0,1-2.17,2.17,1,1,0,0,0-1.09-1.08c0,1.08-.73,4-2.17,8.7v3.26h1.08a29.92,29.92,0,0,1,2.18-9.79h1.08v3.26h1.09l3.26-10.87H318.1l-2.18,1.09v-3.26l1.09-2.18Zm-4.34,175.05v1.09h2.17v-1.09ZM317,178.48l-1.09,7.61h5.44l-1.09-2.17a8.47,8.47,0,0,0,1.09-3.26l-2.18,1.09a8.39,8.39,0,0,1-1.08-3.27Zm4.35-8.69-3.26,7.61,2.17,1.08h2.18V177.4l-1.09-4.35,1.09-2.18v-1.08Zm1.09,188.09V359h1.08q6.53-2.18,6.53-4.35H329Q324.89,357.88,322.45,357.88Zm4.34-195.71v2.18h-2.17C324.8,162.9,325.52,162.17,326.79,162.17Zm-1.08-9.78v1.09h2.17v-1.09Zm4.35-26.1v2.18h1.08v-2.18Zm1.08,227.24v1.09h2.18v-1.09ZM337.67,135h1.08a1.92,1.92,0,0,1-2.17,2.18h-1.09C335.67,135.72,336.4,135,337.67,135Zm-1.09,215.28v1.09h1.09c3.62-2.18,6.16-3.26,7.61-3.26v-2.18h-1.09Q339.3,350.27,336.58,350.27Zm6.52-247.89h2.18v2.17H343.1Zm16.31,225.06q0,1.37-5.43,6.52v1.09q1.62,0,6.52-6.52v-1.09Zm3.26-2.18v1.09h1.09q0-2.18,4.35-6.52H367C366.11,319.83,364.67,321.64,362.67,325.26Zm17.4-23.92L379,303.52l-2.17-1.09h-1.09q0,2.73-6.52,12v1.09h2.17c2-3.62,3.44-5.44,4.35-5.44q4.89-7.6,6.52-7.61v-1.09ZM369.2,316.57v1.08h2.17v-1.08Zm10.87-21.75V297h1.09v-2.18ZM381.16,310h2.17v2.18h-2.17Zm9.78-32.62a8.29,8.29,0,0,0,3.26,1.09,1.92,1.92,0,0,1-2.17,2.18,1,1,0,0,0-1.09-1.09v2.17h2.18v1.09a1.93,1.93,0,0,1-2.18,2.18,1.92,1.92,0,0,0-2.17-2.18v-2.17Zm0-4.34h2.18v2.17h-2.18ZM392,228.5h2.17a1.92,1.92,0,0,0,2.18,2.17v1.09a1.92,1.92,0,0,1-2.18,2.17Q392,230.41,392,228.5Zm1.09,23.92v2.17h2.17A1.92,1.92,0,0,0,393.12,252.42Zm4.35-20.66h2.17v2.17A1.92,1.92,0,0,1,397.47,231.76Zm0,29.36h2.17v2.17h-2.17Zm3.26-10.88h2.17v1.09h-2.17Z" transform="translate(-27.85 -81.72)"/><path class="cls-2" d="M131,315.49c0,.33-.16.49-.47.49h-36c-.52,0-.78-.2-.78-.58v-1.31c0-.45.26-.68.78-.68h10.69q1.26,0,1-.87-.7-1.55-5.39-10.08t-5.15-9.17a1.88,1.88,0,0,0-1.64-1H56.35a1.93,1.93,0,0,0-1.17.58A47.61,47.61,0,0,0,51.43,299a57.07,57.07,0,0,0-3.28,6.56,25.61,25.61,0,0,0-1.25,4.64c0,2.13.42,3.19,1.25,3.19H60c.62,0,.93.23.93.68v1.4c0,.33-.26.49-.78.49H28.63c-.52,0-.78-.16-.78-.49V313.9c0-.32.21-.49.63-.49h6.71c1.15,0,2.69-1.51,4.65-4.54s7.76-11.79,17.44-26.28L79.84,249.4c.58-1,1.15-1.56,1.72-1.69q2.19-.39,5.62-1.21a1.4,1.4,0,0,1,1.25.51c.47.44.26.93-.62,1.48-1.56,1-2.35,2-2.35,2.9a7.31,7.31,0,0,0,1.1,3.63q4.22,7.25,15.22,27.16T117.08,308q4.14,5.46,5.93,5.46h7.34c.42,0,.63.23.63.68ZM92.33,287.92q-3.19-5.76-6.87-12.63T77.89,261a1.19,1.19,0,0,0-.62-.78,3.5,3.5,0,0,0-.78.78q-9.76,14.8-14,21t-4.25,6.39c0,.19.23.29.7.29h33Q92.72,288.64,92.33,287.92Z" transform="translate(-27.85 -81.72)"/><path class="cls-2" d="M239.8,315.4c0,.38-.21.58-.63.58H213.8a4.35,4.35,0,0,1-2-.58q-3-1.61-10.93-8.13l-8.43-7.06q-4.68-4.36-13-13.55a1.52,1.52,0,0,0-1.25-.82q-3.66,0-13-.59c-.83-.16-1.24,0-1.24.49s0,2.65.07,6.12.08,7.12.08,11q0,10.59,3.51,10.59h13.9c.52,0,.78.17.78.49v1.59c0,.33-.21.49-.62.49H140.42a1.49,1.49,0,0,1-.86-.15.45.45,0,0,1-.15-.34V314c0-.29.08-.46.23-.5a2.1,2.1,0,0,1,.63-.08h10.22c.83,0,1.25-.5,1.25-1.5V266.05q-.15-13.31-2.73-13.31h-9.92c-.52,0-.78-.13-.78-.38v-1.79q0-.39.63-.39h23.34c.73,0,3.71-.07,8.94-.19s8.16-.2,8.78-.2a97.28,97.28,0,0,1,9.91.49q10.78,1.07,17.34,5,7.63,4.5,7.65,11.37,0,7.83-7.5,12.87-4.6,3.09-15.07,5.27c-.41.13-.57.32-.46.58q3.44,5.56,15.84,14.28,6.48,4.55,9.45,6.53a75.79,75.79,0,0,0,8.9,5.08,30.25,30.25,0,0,0,12.49,2.27c.83,0,1.25.13,1.25.39Zm-37.86-46.21q0-6.44-6.87-10.5-9.6-5.61-27.79-5.61c-1.77,0-2.74.23-2.89.68q0,13.89-.31,17.32v11c0,.36.36.58,1.09.68,1.19.13,4.5.19,9.91.19q3.36,0,7.54-.39c2.78-.25,4-.38,3.78-.38Q201.94,279.69,201.94,269.19Z" transform="translate(-27.85 -81.72)"/><path class="cls-2" d="M335.82,250.86a43.66,43.66,0,0,1-2.42,7.06,1,1,0,0,1-.94.68,2,2,0,0,1-1.48-.78q-1.8-2.17-6.25-2.8Q317,254,296.94,254c-.83,0-1.28.21-1.33.63s-.21,7.94-.47,22.55q-.47,21-.46,22.5,0,13.78,3.82,13.78h13.43c.36,0,.55.13.55.39v1.69c0,.33-.19.49-.55.49H269c-.57,0-.86-.16-.86-.49V313.9c0-.32.29-.49.86-.49h12.57c1,0,1.48-.42,1.48-1.25-.2-6.78-.31-10.49-.31-11.13s.13-6,.39-16.33.39-15.73.39-16.19q0-14.55-2.73-14.56-20.14,0-28.41,1.41-6,1-7.73,2.66a2.4,2.4,0,0,1-1.56.87q-1,0-1-.39a2.23,2.23,0,0,1,.55-1.26c1.45-3.26,2.63-5.67,3.51-7.25.21-.42.78-.59,1.72-.49q1.64.15,16.08.58,16.86.48,27.24.49,33.42,0,37.94-.1c1.41,0,2.72-.11,3.94-.22l1.76-.17Q335.82,250.08,335.82,250.86Z" transform="translate(-27.85 -81.72)"/><path class="cls-2" d="M426.06,309.06q-2.19,2.76-5.23,6.34a2.36,2.36,0,0,1-1.64.58H345.34c-.52,0-.78-.2-.78-.58v-1.5c0-.32.21-.49.62-.49h11.56c1,0,1.56-.34,1.56-1q0-.43-.16-14.88t-.15-14.9q0-.47-.08-10t-.08-10.09q0-9.81-3-9.82h-9.45q-.78,0-.78-.48v-1.6c0-.32.31-.48.94-.48h69.86c.94,0,2.2,0,3.79-.1l2.3-.09q1,0,.78.48-1.1,2.66-2.73,6.14c-.42.75-.83,1.12-1.25,1.12l-1.09-.73q-2.9-1.74-9.13-2.47-8.75-1-37.08-1.16a1.39,1.39,0,0,0-1.29.58q-.36.59-.35,24c0,.64.44,1,1.32,1h38.18c.72,0,1.15-.25,1.28-.73s.34-1.51.63-3.1.45-2.45.51-2.61a.82.82,0,0,1,.93-.92h1.17c.63,0,.94.28.94.83,0,.12-.1,1.47-.31,4s-.31,4.08-.31,4.57.05,2.17.15,5.08.16,4.45.16,4.64c0,.71-.29,1.07-.86,1.07h-1.25a.85.85,0,0,1-.94-.68c-.2-2.06-.46-4.52-.78-7.36-.15-.64-.65-1-1.48-1l-19.24-.2-18.93-.19q-1,0-1,.87v18.24q0,11.61,4.06,11.61,36.54,0,48.56-3.48c1.92-.68,3.09-1.08,3.51-1.21S426.27,308.64,426.06,309.06Z" transform="translate(-27.85 -81.72)"/></svg>